<svg width="21" height="23" viewBox="0 0 21 23" fill="none" xmlns="http://www.w3.org/2000/svg">
<path d="M17.0858 3.09374H12.8858C12.7179 2.55911 12.3976 2.09443 11.9701 1.76524C11.5426 1.43605 11.0294 1.25897 10.5029 1.25897C9.97643 1.25897 9.46323 1.43605 9.0357 1.76524C8.60817 2.09443 8.28787 2.55911 8.11999 3.09374H4.08332C3.94047 3.07161 3.79485 3.08218 3.65609 3.12477C3.51733 3.16735 3.38857 3.24098 3.27832 3.3408C3.16807 3.44062 3.07883 3.56435 3.01649 3.70384C2.95414 3.84332 2.92012 3.99539 2.91666 4.14999V20.1625C2.91742 20.302 2.94383 20.44 2.99437 20.5686C3.04491 20.6972 3.1186 20.8139 3.21123 20.912C3.30386 21.0101 3.41361 21.0876 3.53422 21.1403C3.65482 21.1929 3.78393 21.2196 3.91416 21.2187H17.0858C17.2161 21.2196 17.3452 21.1929 17.4658 21.1403C17.5864 21.0876 17.6961 21.0101 17.7888 20.912C17.8814 20.8139 17.9551 20.6972 18.0056 20.5686C18.0562 20.44 18.0826 20.302 18.0833 20.1625V4.14999C18.0826 4.01046 18.0562 3.87246 18.0056 3.74387C17.9551 3.61527 17.8814 3.4986 17.7888 3.40052C17.6961 3.30244 17.5864 3.22486 17.4658 3.17223C17.3452 3.11959 17.2161 3.09292 17.0858 3.09374ZM6.58582 4.96874C6.58582 4.80298 6.64728 4.64401 6.75668 4.5268C6.86607 4.40959 7.01445 4.34374 7.16916 4.34374H9.17582V3.94999C9.17582 3.56626 9.3181 3.19824 9.57135 2.9269C9.8246 2.65556 10.1681 2.50312 10.5262 2.50312C10.8844 2.50312 11.2279 2.65556 11.4811 2.9269C11.7344 3.19824 11.8767 3.56626 11.8767 3.94999V4.375H13.8833C14.038 4.375 14.1864 4.44084 14.2958 4.55805C14.4052 4.67526 14.4667 4.83423 14.4667 5V6.125H6.56249L6.58582 4.96874ZM15.0558 10.7375L9.73582 16.4375L6.67916 13.1625C6.52445 12.9967 6.43753 12.7719 6.43753 12.5375C6.43753 12.3031 6.52445 12.0783 6.67916 11.9125C6.83387 11.7467 7.0437 11.6536 7.26249 11.6536C7.48128 11.6536 7.69111 11.7467 7.84582 11.9125L9.74749 13.95L13.9125 9.4875C14.0672 9.32173 14.277 9.22861 14.4958 9.22861C14.7146 9.22861 14.9244 9.32173 15.0792 9.4875C15.2339 9.65326 15.3208 9.87807 15.3208 10.1125C15.3208 10.3469 15.2339 10.5717 15.0792 10.7375H15.0558Z" fill="black"/>
</svg>
