<svg width="19" height="20" viewBox="0 0 19 20" fill="none" xmlns="http://www.w3.org/2000/svg">
<path d="M12.2143 20H0V14C0.719873 14 1.41026 13.5786 1.91929 12.8284C2.42832 12.0783 2.71429 11.0609 2.71429 10C2.71429 8.93913 2.42832 7.92172 1.91929 7.17157C1.41026 6.42143 0.719873 6 0 6V0H12.2143V5H13.5714V0H19V6C18.2801 6 17.5897 6.42143 17.0807 7.17157C16.5717 7.92172 16.2857 8.93913 16.2857 10C16.2857 11.0609 16.5717 12.0783 17.0807 12.8284C17.5897 13.5786 18.2801 14 19 14V20H13.5714V15H12.2143V20ZM12.2143 7V13H13.5714V7H12.2143Z" fill="black"/>
</svg>
