<svg width="20" height="20" viewBox="0 0 20 20" fill="none" xmlns="http://www.w3.org/2000/svg">
<path d="M0.5 5.54922V0.5H12.3571V5V5.5H12.8571H14.2857H14.7857V5V0.5H19.5V5.54922C18.7454 5.69908 18.0717 6.18258 17.5728 6.88095C16.9676 7.72825 16.6429 8.8512 16.6429 10C16.6429 11.1488 16.9676 12.2718 17.5728 13.119C18.0717 13.8174 18.7454 14.3009 19.5 14.4508V19.5H14.7857V15V14.5H14.2857H12.8571H12.3571V15V19.5H0.5V14.4508C1.25462 14.3009 1.92833 13.8174 2.42717 13.119C3.03238 12.2718 3.35714 11.1488 3.35714 10C3.35714 8.8512 3.03238 7.72825 2.42717 6.88095C1.92833 6.18258 1.25462 5.69908 0.5 5.54922ZM12.8571 6.5H12.3571V7V13V13.5H12.8571H14.2857H14.7857V13V7V6.5H14.2857H12.8571Z" fill="white" stroke="black"/>
</svg>
